<svg id="visual" viewBox="0 0 900 600" width="900" height="600" xmlns="http://www.w3.org/2000/svg" xmlns:xlink="http://www.w3.org/1999/xlink" version="1.1"><rect x="0" y="0" width="900" height="600" fill="{{color1}}"></rect><defs><linearGradient id="grad1_0" x1="33.3%" y1="0%" x2="100%" y2="100%"><stop offset="20%" stop-color="{{color2}}" stop-opacity="1"></stop><stop offset="80%" stop-color="{{color3}}" stop-opacity="1"></stop></linearGradient></defs><defs><linearGradient id="grad2_0" x1="0%" y1="0%" x2="66.7%" y2="100%"><stop offset="20%" stop-color="{{color4}}" stop-opacity="1"></stop><stop offset="80%" stop-color="{{color5}}" stop-opacity="1"></stop></linearGradient></defs><g transform="translate(900, 0)"><path d="M0 486.7C-32.8 449.2 -65.7 411.7 -109 406.7C-152.3 401.6 -206 429.1 -242 419.2C-278 409.2 -296.1 362 -329.5 329.5C-362.9 297.1 -411.5 279.4 -421.5 243.4C-431.6 207.3 -403.2 152.9 -407.6 109.2C-412.1 65.6 -449.4 32.8 -486.7 0L0 0Z" fill="{{color6}}"></path></g><g transform="translate(0, 600)"><path d="M0 -486.7C40.3 -469.3 80.5 -451.9 116.7 -435.6C153 -419.4 185.1 -404.2 227 -393.2C268.9 -382.1 320.4 -375.1 344.2 -344.2C368 -313.3 364.2 -258.4 378.5 -218.5C392.7 -178.6 425.2 -153.5 446.3 -119.6C467.3 -85.6 477 -42.8 486.7 0L0 0Z" fill="{{color7}}"></path></g></svg>