<svg id="visual" viewBox="0 0 900 600" width="900" height="600" xmlns="http://www.w3.org/2000/svg" xmlns:xlink="http://www.w3.org/1999/xlink" version="1.1"><rect x="0" y="0" width="900" height="600" fill="{{color1}}"></rect><path d="M0 393L21.5 397.2C43 401.3 86 409.7 128.8 411C171.7 412.3 214.3 406.7 257.2 399.2C300 391.7 343 382.3 385.8 383.7C428.7 385 471.3 397 514.2 395.3C557 393.7 600 378.3 642.8 380.5C685.7 382.7 728.3 402.3 771.2 416.2C814 430 857 438 878.5 442L900 446L900 601L878.5 601C857 601 814 601 771.2 601C728.3 601 685.7 601 642.8 601C600 601 557 601 514.2 601C471.3 601 428.7 601 385.8 601C343 601 300 601 257.2 601C214.3 601 171.7 601 128.8 601C86 601 43 601 21.5 601L0 601Z" fill="{{color2}}"></path><path d="M0 426L21.5 425C43 424 86 422 128.8 417.8C171.7 413.7 214.3 407.3 257.2 416.2C300 425 343 449 385.8 454C428.7 459 471.3 445 514.2 432.3C557 419.7 600 408.3 642.8 402.7C685.7 397 728.3 397 771.2 401C814 405 857 413 878.5 417L900 421L900 601L878.5 601C857 601 814 601 771.2 601C728.3 601 685.7 601 642.8 601C600 601 557 601 514.2 601C471.3 601 428.7 601 385.8 601C343 601 300 601 257.2 601C214.3 601 171.7 601 128.8 601C86 601 43 601 21.5 601L0 601Z" fill="{{color3}}"></path><path d="M0 464L21.5 459.8C43 455.7 86 447.3 128.8 445.8C171.7 444.3 214.3 449.7 257.2 458.2C300 466.7 343 478.3 385.8 484.3C428.7 490.3 471.3 490.7 514.2 484C557 477.3 600 463.7 642.8 464.3C685.7 465 728.3 480 771.2 480.5C814 481 857 467 878.5 460L900 453L900 601L878.5 601C857 601 814 601 771.2 601C728.3 601 685.7 601 642.8 601C600 601 557 601 514.2 601C471.3 601 428.7 601 385.8 601C343 601 300 601 257.2 601C214.3 601 171.7 601 128.8 601C86 601 43 601 21.5 601L0 601Z" fill="{{color4}}"></path><path d="M0 532L21.5 531C43 530 86 528 128.8 523.3C171.7 518.7 214.3 511.3 257.2 505C300 498.7 343 493.3 385.8 495.7C428.7 498 471.3 508 514.2 510.8C557 513.7 600 509.3 642.8 509.2C685.7 509 728.3 513 771.2 509.8C814 506.7 857 496.3 878.5 491.2L900 486L900 601L878.5 601C857 601 814 601 771.2 601C728.3 601 685.7 601 642.8 601C600 601 557 601 514.2 601C471.3 601 428.7 601 385.8 601C343 601 300 601 257.2 601C214.3 601 171.7 601 128.8 601C86 601 43 601 21.5 601L0 601Z" fill="{{color5}}"></path><path d="M0 570L21.5 568.8C43 567.7 86 565.3 128.8 562.3C171.7 559.3 214.3 555.7 257.2 551C300 546.3 343 540.7 385.8 543.8C428.7 547 471.3 559 514.2 565.2C557 571.3 600 571.7 642.8 566.8C685.7 562 728.3 552 771.2 551.8C814 551.7 857 561.3 878.5 566.2L900 571L900 601L878.5 601C857 601 814 601 771.2 601C728.3 601 685.7 601 642.8 601C600 601 557 601 514.2 601C471.3 601 428.7 601 385.8 601C343 601 300 601 257.2 601C214.3 601 171.7 601 128.8 601C86 601 43 601 21.5 601L0 601Z" fill="{{color6}}"></path></svg>